<?xml version="1.0" standalone="no"?><!DOCTYPE svg PUBLIC "-//W3C//DTD SVG 1.1//EN" "http://www.w3.org/Graphics/SVG/1.1/DTD/svg11.dtd"><svg height="1024" node-id="1" sillyvg="true" template-height="1024" template-width="1024" version="1.1" viewBox="0 0 1024 1024" width="1024" xmlns="http://www.w3.org/2000/svg" xmlns:xlink="http://www.w3.org/1999/xlink"><defs node-id="60"><linearGradient gradientUnits="objectBoundingBox" id="linearGradient-1" node-id="5" spreadMethod="pad" x1="0.5" x2="0.5" y1="0" y2="1"><stop offset="0" stop-color="#2dadad" stop-opacity="0.6203417"></stop><stop offset="1" stop-color="#ffffff"></stop></linearGradient><linearGradient gradientUnits="objectBoundingBox" id="linearGradient-2" node-id="8" spreadMethod="pad" x1="0.5" x2="0.50571275" y1="0" y2="0.766"><stop offset="0" stop-color="#f8f8f8" stop-opacity="0.71"></stop><stop offset="1" stop-color="#e2e7f2" stop-opacity="0"></stop></linearGradient><linearGradient gradientUnits="objectBoundingBox" id="linearGradient-3" node-id="11" spreadMethod="pad" x1="0.5" x2="0.5" y1="0" y2="0.6386449"><stop offset="0" stop-color="#2dadad" stop-opacity="0.6203417"></stop><stop offset="1" stop-color="#ffffff"></stop></linearGradient><linearGradient gradientUnits="objectBoundingBox" id="linearGradient-4" node-id="14" spreadMethod="pad" x1="0.6847118" x2="-0.0046250816" y1="0.463" y2="0.605"><stop offset="0" stop-color="#eaeef2"></stop><stop offset="1" stop-color="#e1e6ed"></stop></linearGradient><linearGradient gradientUnits="objectBoundingBox" id="linearGradient-5" node-id="17" spreadMethod="pad" x1="0.9760614" x2="-0.07032155" y1="0.471" y2="0.45400003"><stop offset="0" stop-color="#eaeef2"></stop><stop offset="1" stop-color="#e1e6ed"></stop></linearGradient><linearGradient gradientUnits="objectBoundingBox" id="linearGradient-6" node-id="20" spreadMethod="pad" x1="0.731" x2="0.731" y1="0.953" y2="0.21700001"><stop offset="0" stop-color="#f8f8f8"></stop><stop offset="1" stop-color="#e2e7f2"></stop></linearGradient><linearGradient gradientUnits="objectBoundingBox" id="linearGradient-7" node-id="23" spreadMethod="pad" x1="0.305" x2="0.325" y1="0.95897436" y2="0.12609865"><stop offset="0" stop-color="#f8f8f8"></stop><stop offset="1" stop-color="#e2e7f2"></stop></linearGradient><linearGradient gradientUnits="objectBoundingBox" id="linearGradient-8" node-id="26" spreadMethod="pad" x1="0.49999923" x2="0.49999923" y1="0" y2="0.99999845"><stop offset="0" stop-color="#f8f8f8"></stop><stop offset="1" stop-color="#e2e7f2"></stop></linearGradient><linearGradient gradientUnits="objectBoundingBox" id="linearGradient-9" node-id="29" spreadMethod="pad" x1="0.49999923" x2="0.49999923" y1="0" y2="0.99999845"><stop offset="0" stop-color="#f8f8f8"></stop><stop offset="1" stop-color="#e2e7f2"></stop></linearGradient><linearGradient gradientUnits="objectBoundingBox" id="linearGradient-10" node-id="32" spreadMethod="pad" x1="0.5" x2="0.5" y1="0" y2="1"><stop offset="0" stop-color="#2dadad" stop-opacity="0.6203417"></stop><stop offset="1" stop-color="#ffffff"></stop></linearGradient><linearGradient gradientUnits="objectBoundingBox" id="linearGradient-11" node-id="35" spreadMethod="pad" x1="0.034368683" x2="1.480827" y1="0.5" y2="0.5"><stop offset="0" stop-color="#59ddaf"></stop><stop offset="1" stop-color="#26ba84"></stop></linearGradient></defs><g node-id="127"><g node-id="128"><path d="M -8.00 12.00 L 991.20 12.00 L 991.20 1036.00 L -8.00 1036.00 Z" fill="#ffffff" fill-opacity="0" fill-rule="nonzero" group-id="1,2" id="矩形_343" node-id="41" stroke="none" target-height="1024" target-width="999.2" target-x="-8" target-y="12"></path><g node-id="130"><path d="M 613.10 559.60 L 603.70 558.90 L 594.70 557.40 L 586.10 555.00 L 577.80 551.70 L 569.80 547.60 L 562.40 542.90 L 555.40 537.50 L 549.00 531.40 L 543.10 524.70 L 538.00 517.50 L 533.50 509.80 L 529.60 501.60 L 526.60 493.00 L 524.40 484.10 L 523.00 474.90 L 522.50 465.20 L 523.00 455.50 L 524.40 446.30 L 526.60 437.40 L 529.60 428.80 L 533.50 420.60 L 538.00 412.90 L 543.10 405.70 L 549.00 399.00 L 555.40 392.90 L 562.40 387.50 L 569.80 382.80 L 577.80 378.70 L 586.10 375.50 L 594.70 373.10 L 603.70 371.50 L 613.10 370.90 L 624.70 371.60 L 635.90 373.90 L 646.90 377.60 L 646.60 370.90 L 647.10 360.90 L 648.70 351.20 L 651.30 341.90 L 655.00 332.90 L 659.60 324.60 L 665.20 316.70 L 671.70 309.60 L 678.90 303.30 L 687.00 297.70 L 695.80 293.20 L 704.70 289.80 L 713.90 287.60 L 723.40 286.50 L 732.80 286.50 L 742.20 287.60 L 751.40 289.80 L 760.40 293.20 L 769.10 297.70 L 777.20 303.30 L 784.50 309.60 L 790.90 316.70 L 796.50 324.60 L 801.10 332.90 L 804.80 341.90 L 807.40 351.20 L 809.00 360.90 L 809.50 370.90 L 808.80 381.80 L 806.80 392.40 L 803.50 402.80 L 810.00 399.10 L 816.70 396.10 L 823.60 393.80 L 830.80 392.10 L 838.00 391.10 L 845.40 390.70 L 856.60 391.60 L 867.20 393.90 L 877.20 397.60 L 886.60 402.60 L 895.30 408.60 L 903.10 415.80 L 910.00 423.90 L 915.80 432.70 L 920.50 442.50 L 924.00 452.80 L 926.10 463.60 L 926.90 475.10 L 926.10 486.60 L 924.00 497.50 L 920.50 507.80 L 915.80 517.50 L 910.00 526.40 L 903.10 534.50 L 895.30 541.70 L 886.60 547.70 L 877.20 552.70 L 867.20 556.30 L 856.60 558.60 L 845.40 559.60 Z" fill="url(#linearGradient-1)" fill-opacity="0.2" fill-rule="nonzero" group-id="1,2,4" id="联合_69" node-id="43" stroke="none" target-height="273.09998" target-width="404.40002" target-x="522.5" target-y="286.5"></path><path d="M 82.50 791.10 L 75.60 755.70 L 71.90 732.80 L 68.50 707.40 L 67.10 694.30 L 65.50 668.10 L 65.40 655.80 L 66.10 640.20 L 66.90 633.20 L 68.00 626.30 L 69.50 620.30 L 71.20 615.10 L 72.90 611.20 L 74.80 608.00 L 76.90 605.30 L 79.10 603.10 L 82.40 600.70 L 88.50 597.50 L 91.40 596.60 L 95.50 596.00 L 99.50 596.00 L 103.30 596.60 L 107.20 597.70 L 110.90 599.30 L 114.50 601.30 L 119.70 604.90 L 124.50 609.00 L 129.00 613.50 L 136.60 622.60 L 145.20 635.50 L 141.20 620.30 L 137.50 603.70 L 133.60 583.40 L 130.50 561.00 L 129.40 549.50 L 128.60 530.60 L 129.30 516.60 L 130.20 509.80 L 131.40 503.60 L 132.90 497.90 L 134.50 493.70 L 136.20 490.00 L 140.40 483.80 L 142.90 481.20 L 145.80 479.00 L 149.00 477.20 L 152.50 475.90 L 156.20 475.10 L 159.80 474.90 L 163.30 475.30 L 166.70 476.20 L 170.00 477.50 L 176.60 481.50 L 179.90 484.20 L 183.90 488.20 L 187.90 492.90 L 191.90 498.30 L 199.20 509.90 L 202.70 516.40 L 207.50 526.40 L 216.30 547.40 L 220.00 557.60 L 226.40 577.10 L 231.00 593.20 L 234.90 608.30 L 233.70 593.40 L 233.40 577.90 L 233.70 569.20 L 235.20 553.60 L 237.60 541.40 L 239.40 535.50 L 241.50 529.90 L 243.90 524.60 L 246.10 520.90 L 251.10 514.40 L 254.00 511.70 L 257.20 509.30 L 260.70 507.30 L 264.60 505.80 L 268.90 504.60 L 272.30 504.30 L 275.80 504.60 L 279.30 505.60 L 283.00 507.30 L 286.30 509.40 L 289.80 512.00 L 293.30 515.20 L 297.00 519.20 L 301.50 524.60 L 306.00 530.90 L 310.60 538.10 L 319.30 553.30 L 329.60 574.60 L 340.90 601.40 L 350.60 627.20 L 361.30 659.20 L 367.00 678.10 Z" fill="url(#linearGradient-2)" fill-rule="nonzero" group-id="1,2,4" id="路径_63" node-id="44" stroke="none" target-height="316.19998" target-width="301.6" target-x="65.4" target-y="474.9"></path><g node-id="133"><path d="M 1016.00 826.80 L 1015.70 832.20 L 1015.00 837.50 L 1013.80 842.90 L 1012.00 848.30 L 1009.70 853.80 L 1006.80 859.40 L 1003.00 865.40 L 998.50 871.50 L 993.20 877.70 L 987.00 884.00 L 979.70 890.50 L 972.70 896.10 L 964.90 901.80 L 956.20 907.50 L 946.60 913.30 L 936.00 919.10 L 923.10 925.50 L 909.00 931.90 L 893.50 938.20 L 876.50 944.50 L 858.60 950.40 L 839.50 956.10 L 819.30 961.50 L 799.00 966.40 L 777.90 970.90 L 755.70 975.10 L 733.60 978.80 L 710.70 982.10 L 687.10 985.00 L 663.50 987.50 L 639.30 989.50 L 614.70 991.10 L 590.00 992.30 L 565.00 993.00 L 539.70 993.20 L 514.40 993.00 L 489.40 992.30 L 464.80 991.10 L 440.10 989.50 L 415.90 987.50 L 392.30 985.00 L 368.70 982.10 L 345.80 978.80 L 323.70 975.10 L 301.60 970.90 L 280.40 966.40 L 260.10 961.50 L 239.90 956.10 L 220.90 950.40 L 202.90 944.50 L 186.00 938.20 L 170.40 931.90 L 156.30 925.50 L 143.40 919.10 L 132.80 913.30 L 123.20 907.50 L 114.50 901.80 L 106.70 896.10 L 99.70 890.50 L 92.50 884.00 L 86.20 877.70 L 80.90 871.50 L 76.40 865.40 L 72.70 859.40 L 69.70 853.80 L 67.40 848.30 L 65.70 842.90 L 64.40 837.50 L 63.70 832.20 L 63.40 826.80 L 63.70 821.40 L 64.40 816.10 L 65.70 810.70 L 67.40 805.30 L 69.70 799.80 L 72.70 794.20 L 76.40 788.20 L 80.90 782.10 L 86.20 775.90 L 92.50 769.60 L 99.70 763.10 L 106.70 757.50 L 114.50 751.80 L 123.20 746.10 L 132.80 740.30 L 143.40 734.50 L 156.30 728.10 L 170.40 721.70 L 186.00 715.40 L 202.90 709.10 L 220.90 703.20 L 239.90 697.50 L 260.10 692.10 L 280.40 687.20 L 301.60 682.70 L 323.70 678.50 L 345.80 674.80 L 368.70 671.50 L 392.30 668.60 L 415.90 666.10 L 440.10 664.10 L 464.80 662.50 L 489.40 661.30 L 514.40 660.60 L 539.70 660.40 L 565.00 660.60 L 590.00 661.30 L 614.70 662.50 L 639.30 664.10 L 663.50 666.10 L 687.10 668.60 L 710.70 671.50 L 733.60 674.80 L 755.70 678.50 L 777.90 682.70 L 799.00 687.20 L 819.30 692.10 L 839.50 697.50 L 858.60 703.20 L 876.50 709.10 L 893.50 715.40 L 909.00 721.70 L 923.10 728.10 L 936.00 734.50 L 946.60 740.30 L 956.20 746.10 L 964.90 751.80 L 972.70 757.50 L 979.70 763.10 L 987.00 769.60 L 993.20 775.90 L 998.50 782.10 L 1003.00 788.20 L 1006.80 794.20 L 1009.70 799.80 L 1012.00 805.30 L 1013.80 810.70 L 1015.00 816.10 L 1015.70 821.40 Z" fill="url(#linearGradient-3)" fill-opacity="0.061778482" fill-rule="nonzero" group-id="1,2,4,7" id="椭圆_16" node-id="45" stroke="none" target-height="332.8" target-width="952.6" target-x="63.4" target-y="660.4"></path></g><g node-id="134"><path d="M 499.10 379.30 L 499.10 508.30 L 713.50 502.40 L 713.50 405.50 Z" fill="#dbdfe6" fill-rule="nonzero" group-id="1,2,4,8" id="路径_107" node-id="47" stroke="none" target-height="129" target-width="214.4" target-x="499.1" target-y="379.3"></path><path d="M 499.10 379.30 L 499.10 508.30 L 327.00 502.40 L 327.00 417.40 Z" fill="#d0d7e0" fill-rule="nonzero" group-id="1,2,4,8" id="路径_108" node-id="48" stroke="none" target-height="129" target-width="172.1" target-x="327" target-y="379.3"></path><path d="M 523.90 444.90 L 523.90 725.50 L 713.50 687.40 L 713.50 406.30 Z" fill="url(#linearGradient-4)" fill-rule="nonzero" group-id="1,2,4,8" id="路径_103" node-id="49" stroke="none" target-height="319.2" target-width="189.59998" target-x="523.9" target-y="406.3"></path><path d="M 523.90 725.50 L 327.00 690.30 L 327.00 416.60 L 523.90 444.30 Z" fill="url(#linearGradient-5)" fill-rule="nonzero" group-id="1,2,4,8" id="路径_104" node-id="50" stroke="none" target-height="308.9" target-width="196.90002" target-x="327" target-y="416.6"></path><path d="M 327.00 416.60 L 271.50 471.00 L 465.00 506.10 L 524.80 444.30 Z" fill="url(#linearGradient-6)" fill-rule="nonzero" group-id="1,2,4,8" id="路径_105" node-id="51" stroke="none" target-height="89.5" target-width="253.29999" target-x="271.5" target-y="416.6"></path><path d="M 580.40 502.40 L 770.40 460.90 L 714.00 406.50 L 523.00 444.00 Z" fill="url(#linearGradient-7)" fill-rule="nonzero" group-id="1,2,4,8" id="路径_106" node-id="52" stroke="none" target-height="95.899994" target-width="247.40002" target-x="523" target-y="406.5"></path></g><path d="M 118.00 719.30 L 127.00 721.80 L 131.30 722.60 L 141.60 723.70 L 147.20 723.50 L 154.60 722.40 L 158.30 721.40 L 161.80 719.90 L 165.10 718.00 L 168.30 715.70 L 171.10 712.90 L 173.70 709.50 L 176.00 705.40 L 178.50 698.50 L 180.10 689.50 L 182.00 682.80 L 184.00 677.40 L 186.00 673.30 L 188.40 669.40 L 190.70 666.40 L 192.80 664.20 L 197.40 661.00 L 202.30 659.50 L 206.20 659.40 L 201.80 659.30 L 196.40 660.40 L 191.30 662.90 L 188.90 664.70 L 186.30 667.10 L 183.70 670.40 L 181.40 673.90 L 179.20 678.30 L 177.10 684.00 L 166.70 682.40 L 158.10 682.40 L 152.70 683.20 L 147.80 684.40 L 143.60 686.10 L 139.60 688.20 L 136.00 690.60 L 132.90 693.10 L 127.60 698.90 L 122.90 706.40 L 121.00 710.30 L 118.60 716.70 Z" fill="url(#linearGradient-8)" fill-rule="nonzero" group-id="1,2,4" id="路径_109" node-id="53" stroke="none" target-height="64.400024" target-width="88.2" target-x="118" target-y="659.3"></path><path d="M 702.10 798.80 L 710.60 800.30 L 714.50 800.60 L 719.00 800.50 L 723.60 800.00 L 728.20 799.00 L 731.10 797.90 L 734.00 796.40 L 736.60 794.60 L 739.00 792.40 L 741.00 789.70 L 742.80 786.40 L 743.80 783.70 L 744.60 780.70 L 745.30 773.10 L 746.30 768.20 L 747.40 764.20 L 750.10 758.00 L 753.00 754.00 L 755.50 751.90 L 757.50 750.70 L 759.60 749.90 L 762.50 749.60 L 759.30 749.80 L 757.00 750.40 L 754.60 751.40 L 750.20 754.60 L 746.80 759.00 L 745.30 761.70 L 742.80 769.30 L 734.00 768.90 L 727.00 769.80 L 722.70 771.10 L 719.00 772.80 L 715.90 774.80 L 713.00 777.20 L 708.70 782.20 L 706.20 786.40 L 704.50 790.10 L 702.60 796.30 Z" fill="url(#linearGradient-9)" fill-rule="nonzero" group-id="1,2,4" id="路径_110" node-id="54" stroke="none" target-height="51" target-width="60.400024" target-x="702.1" target-y="749.6"></path><path d="M 168.20 288.20 L 164.60 287.90 L 161.20 287.20 L 158.00 286.00 L 155.00 284.40 L 152.20 282.50 L 149.70 280.20 L 147.50 277.50 L 145.60 274.70 L 144.10 271.50 L 143.00 268.10 L 142.30 264.60 L 142.00 260.90 L 142.30 257.10 L 143.00 253.60 L 144.10 250.20 L 145.60 247.10 L 147.50 244.20 L 149.70 241.60 L 152.20 239.30 L 155.00 237.30 L 158.00 235.70 L 161.20 234.50 L 164.60 233.80 L 168.20 233.60 L 171.50 233.80 L 174.70 234.40 L 177.80 235.50 L 177.90 230.70 L 179.10 225.20 L 180.10 222.60 L 183.00 217.90 L 184.90 215.90 L 189.30 212.40 L 194.40 210.20 L 199.80 209.20 L 205.20 209.50 L 207.90 210.20 L 212.90 212.40 L 217.40 215.90 L 220.80 220.20 L 223.20 225.20 L 224.40 230.70 L 224.30 236.70 L 222.80 242.80 L 225.60 241.30 L 228.50 240.20 L 231.60 239.50 L 234.80 239.30 L 238.00 239.60 L 241.10 240.30 L 243.90 241.40 L 249.10 244.60 L 253.30 249.00 L 256.30 254.30 L 257.30 257.30 L 257.90 260.40 L 258.20 263.70 L 257.90 267.00 L 257.30 270.20 L 255.00 275.90 L 251.30 280.80 L 246.60 284.60 L 241.10 287.20 L 238.00 287.90 L 234.80 288.20 Z" fill="url(#linearGradient-10)" fill-opacity="0.2" fill-rule="nonzero" group-id="1,2,4" id="联合_70" node-id="55" stroke="none" target-height="79.000015" target-width="116.20001" target-x="142" target-y="209.2"></path></g></g><g node-id="129"><g node-id="131"><path d="M 646.70 185.20 L 636.10 181.80 L 631.00 180.60 L 625.00 179.60 L 618.70 178.90 L 612.10 178.80 L 603.20 179.90 L 598.80 181.00 L 594.50 182.50 L 590.50 184.60 L 586.60 187.30 L 584.00 189.60 L 581.50 192.30 L 579.20 195.50 L 577.00 199.20 L 575.30 203.00 L 573.80 207.30 L 572.50 212.30 L 571.60 218.00 L 569.50 224.60 L 567.40 230.10 L 565.30 234.50 L 560.50 242.20 L 555.70 247.30 L 551.20 250.40 L 547.80 251.90 L 545.10 252.60 L 542.50 252.90 L 539.20 252.70 L 542.90 253.10 L 548.80 252.50 L 554.90 250.40 L 560.30 247.00 L 565.40 242.00 L 568.00 238.50 L 570.30 234.80 L 572.60 230.30 L 574.90 224.70 L 581.30 226.20 L 587.20 227.00 L 592.50 227.40 L 597.40 227.40 L 602.40 226.90 L 606.90 226.10 L 614.80 223.70 L 619.70 221.30 L 624.10 218.60 L 627.80 215.70 L 631.40 212.30 L 637.00 205.60 L 640.30 200.40 L 642.80 195.70 L 644.70 191.30 L 646.70 185.20 Z" fill="url(#linearGradient-11)" fill-rule="nonzero" group-id="1,3,5" id="路径_72备份" node-id="57" stroke="none" target-height="74.3" target-width="107.5" target-x="539.2" target-y="178.8"></path></g><path d="M 392.60 364.60 L 399.40 366.50 L 405.80 367.90 L 411.80 368.80 L 417.60 369.30 L 429.00 369.10 L 434.10 368.50 L 443.60 366.10 L 451.60 362.60 L 455.10 360.50 L 458.30 358.10 L 461.10 355.50 L 463.40 352.80 L 465.30 349.90 L 466.70 346.80 L 467.70 343.60 L 468.20 340.40 L 468.20 337.00 L 467.70 333.70 L 466.60 330.30 L 465.00 326.80 L 462.70 323.20 L 460.20 320.40 L 458.00 318.70 L 456.00 317.70 L 453.90 317.40 L 451.90 317.60 L 450.10 318.30 L 448.40 319.60 L 446.90 321.20 L 445.60 323.20 L 443.90 327.90 L 443.40 333.30 L 443.80 335.90 L 444.50 338.60 L 445.70 341.00 L 447.40 343.30 L 449.60 345.40 L 451.50 346.60 L 456.40 348.60 L 459.60 349.20 L 466.20 349.50 L 470.30 349.10 L 475.20 348.30 L 481.30 346.70 L 488.60 344.30 L 497.30 340.70 L 520.20 324.30 L 527.20 318.60 L 536.00 310.30 L 540.30 305.40 L 544.30 300.40 L 548.30 294.50 L 552.30 287.90 L 556.00 281.10 L 559.70 273.10 L 563.60 263.90" fill="none" group-id="1,3,6" id="路径-2" node-id="58" stroke="#bcc2c9" stroke-dasharray="2 2" stroke-linecap="round" stroke-width="1" target-height="105.399994" target-width="170.99997" target-x="392.6" target-y="263.9"></path></g></g></svg>